<?xml version="1.0" encoding="utf-8"?>
<!-- Generator: Adobe Illustrator 13.0.2, SVG Export Plug-In . SVG Version: 6.00 Build 14948)  -->
<!DOCTYPE svg PUBLIC "-//W3C//DTD SVG 1.1//EN" "http://www.w3.org/Graphics/SVG/1.1/DTD/svg11.dtd">
<svg version="1.1" id="Layer_1" xmlns="http://www.w3.org/2000/svg" xmlns:xlink="http://www.w3.org/1999/xlink" x="0px" y="0px"
	 width="275.143px" height="72.133px" viewBox="0 0 275.143 72.133" enable-background="new 0 0 275.143 72.133"
	 xml:space="preserve">
<polyline fill="#EF4135" points="55.526,61.278 52.107,50.746 61.065,44.241 49.99,44.241 46.568,33.706 43.149,44.241 
	32.077,44.241 41.032,50.746 37.613,61.278 46.568,54.769 55.526,61.278 "/>
<path fill="#F58426" d="M38.462,51.581c-1.884-1.37-13.109-9.527-13.109-9.527s13.877,0,16.204,0
	c0.724-2.219,5.011-15.417,5.011-15.417s4.289,13.198,5.006,15.417c1.134,0,4.993,0,8.658,0L46.568,0L35.574,33.837H0l35.753,26.086
	C36.9,56.404,38.11,52.667,38.462,51.581"/>
<path fill="#140F06" d="M177.329,58c0,7.707,6.267,13.979,13.979,13.979c5.629,0,10.681-3.348,12.875-8.539l-4.174-1.763
	c-1.483,3.507-4.9,5.769-8.701,5.769c-5.212,0-9.445-4.237-9.445-9.445c0-5.205,4.233-9.441,9.445-9.441
	c2.939,0,5.661,1.336,7.467,3.661l3.582-2.774c-2.667-3.445-6.697-5.421-11.049-5.421C183.595,44.024,177.329,50.298,177.329,58"/>
<path fill="#140F06" d="M161.739,44.473c-7.46,0-13.53,6.068-13.53,13.527c0,7.456,6.07,13.524,13.53,13.524
	c2.686,0,5.23-0.881,7.417-2.324v2.324h4.526V44.473H161.739 M152.741,58c0-4.955,4.035-8.992,8.998-8.992c0,0,4.756,0,7.417,0
	c0,2.533,0,8.375,0,13.992c-1.669,2.456-4.437,3.998-7.417,3.998C156.776,66.998,152.741,62.961,152.741,58"/>
<path fill="#140F06" d="M219.09,44.473c-7.46,0-13.525,6.068-13.525,13.527c0,7.456,6.065,13.524,13.525,13.524
	c2.685,0,5.229-0.881,7.419-2.324v2.324h4.531V44.473H219.09 M210.097,58c0-4.955,4.032-8.992,8.993-8.992c0,0,4.757,0,7.419,0
	c0,2.528,0,8.371,0,13.992c-1.669,2.456-4.438,3.998-7.419,3.998C214.129,66.998,210.097,62.961,210.097,58"/>
<path fill="#140F06" d="M91.062,44.032c-3.081,0-5.839,1.411-7.665,3.625c-1.819-2.214-4.579-3.625-7.657-3.625
	c-5.474,0-9.925,4.454-9.925,9.931v17.562h4.531V53.963c0-2.977,2.418-5.398,5.394-5.398c2.972,0,5.395,2.422,5.395,5.398v17.545
	h4.532V53.963c0-2.977,2.416-5.398,5.396-5.398c2.971,0,5.39,2.422,5.39,5.398v17.562h4.532V53.963
	C100.983,48.486,96.535,44.032,91.062,44.032"/>
<path fill="#140F06" d="M143.497,66.998c-2.397,0-4.343-1.948-4.343-4.346V49.008h6.61v-4.535h-6.61V35.92h-4.532v26.732
	c0,4.896,3.981,8.872,8.875,8.872h4.514v-4.526H143.497"/>
<path fill="#140F06" d="M245.511,40.453h2.263V35.92h-2.263c-4.78,0-8.685,3.813-8.854,8.553h-0.014v0.323v26.729h4.53V49.008h6.536
	v-4.535h-6.506C241.373,42.231,243.228,40.453,245.511,40.453"/>
<path fill="#140F06" d="M127.845,59.59l-0.88,2.087c-1.483,3.507-4.9,5.769-8.708,5.769c-2.247,0-4.313-0.791-5.935-2.108
	l14.79-11.334l0.006,0.012l1.08-0.838l0.777-0.596v-0.006l1.726-1.34l-1.388-1.79c-2.669-3.445-6.697-5.421-11.055-5.421
	c-7.704,0-13.972,6.273-13.972,13.976c0,7.707,6.268,13.979,13.972,13.979c5.628,0,10.685-3.348,12.879-8.534l0.879-2.09
	L127.845,59.59 M118.257,48.559c2.167,0,4.209,0.725,5.857,2.033l-14.529,11.134c-0.495-1.141-0.768-2.4-0.768-3.726
	C108.818,52.795,113.051,48.559,118.257,48.559"/>
<linearGradient id="SVGID_1_" gradientUnits="userSpaceOnUse" x1="-98.3291" y1="609.9829" x2="-97.7625" y2="609.9829" gradientTransform="matrix(0 82.2253 82.2253 0 -50109.4883 8106.021)">
	<stop  offset="0" style="stop-color:#F68F74"/>
	<stop  offset="1" style="stop-color:#EF4135"/>
</linearGradient>
<path fill="url(#SVGID_1_)" d="M46.568,37.344c-1.008,3.114-2.603,8.018-2.603,8.018s-5.158,0-8.433,0
	c2.645,1.924,6.821,4.955,6.821,4.955s-1.594,4.909-2.604,8.02c2.646-1.921,6.82-4.955,6.82-4.955s4.171,3.034,6.815,4.955
	c-1.007-3.11-2.597-8.02-2.597-8.02s4.171-3.031,6.815-4.955c-3.267,0-8.428,0-8.428,0S47.579,40.458,46.568,37.344"/>
<linearGradient id="SVGID_2_" gradientUnits="userSpaceOnUse" x1="-97.7007" y1="611.4409" x2="-97.1344" y2="611.4409" gradientTransform="matrix(0 98.1609 98.1609 0 -59988.5469 9605.0996)">
	<stop  offset="0" style="stop-color:#FAB177"/>
	<stop  offset="1" style="stop-color:#F58426"/>
</linearGradient>
<path fill="url(#SVGID_2_)" d="M46.568,3.642C44.827,9.003,36.394,34.96,36.394,34.96s-27.325,0-32.946,0
	c4.555,3.327,29.573,21.577,31.718,23.143c0.576-1.774,1.642-5.065,1.978-6.091c-1.194-0.868-15.249-11.079-15.249-11.079
	s17.375,0,18.848,0c0.454-1.403,5.825-17.937,5.825-17.937s5.369,16.533,5.827,17.937c1.071,0,4.443,0,6.291,0
	C57.865,38.415,48.318,9.017,46.568,3.642"/>
<linearGradient id="SVGID_3_" gradientUnits="userSpaceOnUse" x1="-97.6685" y1="610.3003" x2="-97.1022" y2="610.3003" gradientTransform="matrix(0 99.3146 99.3146 0 -60421.2227 9715.7598)">
	<stop  offset="0" style="stop-color:#837963"/>
	<stop  offset="1" style="stop-color:#140F06"/>
</linearGradient>
<path fill="url(#SVGID_3_)" d="M191.307,45.149c-7.092,0-12.852,5.764-12.852,12.851s5.76,12.853,12.852,12.853
	c4.787,0,9.108-2.661,11.326-6.849c-0.822-0.346-1.362-0.568-2.107-0.887c-1.844,3.335-5.347,5.452-9.219,5.452
	c-5.828,0-10.575-4.744-10.575-10.569c0-5.827,4.747-10.568,10.575-10.568c2.907,0,5.631,1.179,7.616,3.254
	c0.646-0.507,1.109-0.858,1.807-1.402C198.3,46.653,194.93,45.149,191.307,45.149"/>
<linearGradient id="SVGID_4_" gradientUnits="userSpaceOnUse" x1="-97.6812" y1="610.5015" x2="-97.1149" y2="610.5015" gradientTransform="matrix(0 99.0255 99.0255 0 -60294.2461 9688.9316)">
	<stop  offset="0" style="stop-color:#837963"/>
	<stop  offset="1" style="stop-color:#140F06"/>
</linearGradient>
<path fill="url(#SVGID_4_)" d="M161.739,68.121c-5.582,0-10.119-4.538-10.119-10.121c0-5.577,4.537-10.118,10.119-10.118h8.539
	v15.464l-0.195,0.287C168.176,66.441,165.055,68.121,161.739,68.121 M172.561,45.598c-1.846,0-10.822,0-10.822,0
	c-6.836,0-12.402,5.565-12.402,12.402c0,6.842,5.566,12.402,12.402,12.402c2.324,0,4.672-0.737,6.793-2.142l1.746-1.152
	c0,0,0,2.694,0,3.294c0.851,0,1.431,0,2.283,0C172.561,68.432,172.561,47.573,172.561,45.598"/>
<linearGradient id="SVGID_5_" gradientUnits="userSpaceOnUse" x1="-97.6812" y1="610.0581" x2="-97.1149" y2="610.0581" gradientTransform="matrix(0 99.0255 99.0255 0 -60192.9336 9688.9316)">
	<stop  offset="0" style="stop-color:#837963"/>
	<stop  offset="1" style="stop-color:#140F06"/>
</linearGradient>
<path fill="url(#SVGID_5_)" d="M219.09,68.121c-5.583,0-10.121-4.538-10.121-10.121c0-5.577,4.538-10.118,10.121-10.118h8.538v15.46
	l-0.193,0.287C225.536,66.441,222.415,68.121,219.09,68.121 M229.915,45.598c-1.846,0-10.824,0-10.824,0
	c-6.837,0-12.403,5.565-12.403,12.402c0,6.842,5.566,12.402,12.403,12.402c2.324,0,4.675-0.737,6.797-2.142l1.741-1.152
	c0,0,0,2.694,0,3.294c0.856,0,1.433,0,2.286,0C229.915,68.432,229.915,47.573,229.915,45.598"/>
<linearGradient id="SVGID_6_" gradientUnits="userSpaceOnUse" x1="-97.6772" y1="611.1089" x2="-97.1109" y2="611.1089" gradientTransform="matrix(0 99.1694 99.1694 0 -60519.9414 9702.4023)">
	<stop  offset="0" style="stop-color:#837963"/>
	<stop  offset="1" style="stop-color:#140F06"/>
</linearGradient>
<path fill="url(#SVGID_6_)" d="M91.062,45.157c-2.633,0-5.11,1.168-6.797,3.212l-0.868,1.051l-0.865-1.051
	c-1.684-2.044-4.158-3.212-6.792-3.212c-4.852,0-8.803,3.947-8.803,8.806c0,0,0,14.474,0,16.439c0.851,0,1.432,0,2.283,0
	c0-1.966,0-16.439,0-16.439c0-3.6,2.926-6.521,6.52-6.521c3.595,0,6.514,2.922,6.514,6.521c0,0,0,14.453,0,16.419
	c0.854,0,1.435,0,2.286,0c0-1.966,0-16.419,0-16.419c0-3.6,2.926-6.521,6.522-6.521c3.592,0,6.517,2.922,6.517,6.521
	c0,0,0,14.474,0,16.439c0.851,0,1.427,0,2.279,0c0-1.966,0-16.439,0-16.439C99.857,49.104,95.913,45.157,91.062,45.157"/>
<linearGradient id="SVGID_7_" gradientUnits="userSpaceOnUse" x1="-97.6064" y1="610.8198" x2="-97.0393" y2="610.8198" gradientTransform="matrix(0 101.1807 101.1807 0 -61661.7812 9890.5488)">
	<stop  offset="0" style="stop-color:#837963"/>
	<stop  offset="1" style="stop-color:#140F06"/>
</linearGradient>
<path fill="url(#SVGID_7_)" d="M138.026,37.048c-0.85,0-1.428,0-2.277,0c0,2.059,0,25.604,0,25.604c0,4.274,3.478,7.75,7.748,7.75
	c0,0,2.121,0,3.389,0c0-0.851,0-1.432,0-2.281c-1.268,0-3.389,0-3.389,0c-3.012,0-5.471-2.455-5.471-5.469V47.882
	c0,0,5.064,0,6.614,0c0-0.854,0-1.436,0-2.284c-1.55,0-6.614,0-6.614,0S138.026,38.74,138.026,37.048"/>
<linearGradient id="SVGID_8_" gradientUnits="userSpaceOnUse" x1="-97.6064" y1="610.0542" x2="-97.0393" y2="610.0542" gradientTransform="matrix(0 101.1807 101.1807 0 -61483.5938 9890.5488)">
	<stop  offset="0" style="stop-color:#837963"/>
	<stop  offset="1" style="stop-color:#140F06"/>
</linearGradient>
<path fill="url(#SVGID_8_)" d="M246.655,37.048c-0.571,0-1.144,0-1.144,0c-4.185,0-7.578,3.277-7.733,7.468l-0.014,0.28
	c0,0,0,23.544,0,25.606c0.849,0,1.432,0,2.283,0c0-2.028,0-22.521,0-22.521s4.994,0,6.535,0c0-0.854,0-1.436,0-2.284
	c-1.541,0-6.592,0-6.592,0l0.093-1.21c0.214-2.834,2.599-5.057,5.428-5.057c0,0,0.572,0,1.144,0
	C246.655,38.479,246.655,37.898,246.655,37.048"/>
<linearGradient id="SVGID_9_" gradientUnits="userSpaceOnUse" x1="-97.6685" y1="610.8589" x2="-97.1022" y2="610.8589" gradientTransform="matrix(0 99.3146 99.3146 0 -60549.2852 9715.7598)">
	<stop  offset="0" style="stop-color:#837963"/>
	<stop  offset="1" style="stop-color:#140F06"/>
</linearGradient>
<path fill="url(#SVGID_9_)" d="M109.12,63.496l-0.568-1.325c-0.572-1.322-0.856-2.729-0.856-4.171
	c0-5.827,4.733-10.568,10.562-10.568c2.413,0,4.68,0.789,6.558,2.284l1.129,0.896L109.12,63.496 M118.257,45.149
	c-7.087,0-12.845,5.764-12.845,12.851s5.758,12.853,12.845,12.853c5.18,0,9.825-3.08,11.845-7.849c0,0,0.221-0.522,0.441-1.05
	c-0.78-0.334-1.314-0.561-2.102-0.892c-0.224,0.527-0.441,1.051-0.441,1.051c-1.664,3.923-5.483,6.456-9.744,6.456
	c-2.404,0-4.771-0.836-6.643-2.362l-1.106-0.896l15.919-12.203l1.083-0.818l0.779-0.601c0-0.007,0.414-0.327,0.838-0.653
	c-0.352-0.455-0.704-0.903-0.704-0.903C125.964,46.963,122.263,45.149,118.257,45.149"/>
<path fill="#140F06" d="M270.973,59.744l-0.88,2.085c-1.483,3.509-4.901,5.771-8.709,5.771c-2.247,0-4.312-0.79-5.933-2.109
	l14.789-11.333l0.004,0.008l1.08-0.834l0.778-0.597v-0.006l1.726-1.338l-1.388-1.792c-2.671-3.446-6.697-5.417-11.057-5.417
	c-7.704,0-13.971,6.27-13.971,13.973c0,7.708,6.267,13.978,13.971,13.978c5.628,0,10.687-3.35,12.88-8.533l0.879-2.091
	L270.973,59.744 M261.384,48.712c2.168,0,4.21,0.728,5.857,2.036l-14.528,11.133c-0.494-1.143-0.768-2.401-0.768-3.726
	C251.946,52.949,256.18,48.712,261.384,48.712"/>
<linearGradient id="SVGID_10_" gradientUnits="userSpaceOnUse" x1="-97.667" y1="612.3003" x2="-97.1008" y2="612.3003" gradientTransform="matrix(0 99.3146 99.3146 0 -60549.2852 9715.7598)">
	<stop  offset="0" style="stop-color:#837963"/>
	<stop  offset="1" style="stop-color:#140F06"/>
</linearGradient>
<path fill="url(#SVGID_10_)" d="M252.249,63.649l-0.57-1.325c-0.57-1.318-0.854-2.725-0.854-4.169
	c0-5.827,4.732-10.568,10.561-10.568c2.414,0,4.681,0.792,6.56,2.284l1.129,0.896L252.249,63.649 M261.384,45.302
	c-7.085,0-12.844,5.765-12.844,12.854c0,7.083,5.759,12.852,12.844,12.852c5.181,0,9.825-3.079,11.845-7.845
	c0,0,0.223-0.524,0.442-1.05c-0.78-0.338-1.313-0.562-2.101-0.894c-0.224,0.525-0.441,1.051-0.441,1.051
	c-1.664,3.918-5.482,6.454-9.745,6.454c-2.403,0-4.771-0.837-6.643-2.36l-1.105-0.896l15.92-12.201l1.081-0.819l0.781-0.602
	c0-0.005,0.413-0.329,0.837-0.651c-0.352-0.458-0.702-0.903-0.702-0.903C269.092,47.117,265.391,45.302,261.384,45.302"/>
</svg>
