<?xml version="1.0" encoding="utf-8"?>
<!-- Generator: Adobe Illustrator 19.2.1, SVG Export Plug-In . SVG Version: 6.00 Build 0)  -->
<svg version="1.1" id="Layer_1" xmlns="http://www.w3.org/2000/svg" xmlns:xlink="http://www.w3.org/1999/xlink" x="0px" y="0px"
	 viewBox="0 0 400 400" style="enable-background:new 0 0 400 400;" xml:space="preserve">
<style type="text/css">
	.st0{fill:#1DA1F2;}
	.st1{fill:#FFFFFF;}
</style>
<path class="st0" d="M353.9,372.9c10.5,0,19.1-8.5,19.1-19.1V46.1c0-10.5-8.5-19.1-19.1-19.1H46.1c-10.5,0-19.1,8.5-19.1,19.1v307.7
	c0,10.5,8.5,19.1,19.1,19.1H353.9z"/>
<path class="st1" d="M159.9,287.8c81.5,0,126.1-67.5,126.1-126.1c0-1.9,0-3.8-0.1-5.7c8.7-6.3,16.2-14.1,22.1-22.9
	c-7.9,3.5-16.5,5.9-25.5,7c9.1-5.5,16.2-14.2,19.5-24.5c-8.6,5.1-18,8.8-28.1,10.8c-8.1-8.6-19.6-14-32.4-14
	c-24.5,0-44.3,19.8-44.3,44.3c0,3.5,0.4,6.9,1.1,10.1c-36.8-1.9-69.5-19.5-91.4-46.3c-3.8,6.5-6,14.2-6,22.3
	c0,15.4,7.8,28.9,19.7,36.9c-7.3-0.2-14.1-2.2-20.1-5.5c0,0.2,0,0.4,0,0.6c0,21.5,15.3,39.4,35.6,43.4c-3.7,1-7.6,1.6-11.7,1.6
	c-2.9,0-5.6-0.3-8.3-0.8c5.6,17.6,22,30.4,41.4,30.8c-15.2,11.9-34.3,19-55,19c-3.6,0-7.1-0.2-10.6-0.6
	C111.6,280.4,134.9,287.8,159.9,287.8"/>
</svg>
