<?xml version="1.0" encoding="utf-8"?>
<!-- Generator: Adobe Illustrator 19.2.1, SVG Export Plug-In . SVG Version: 6.00 Build 0)  -->
<svg version="1.1" id="Layer_1" xmlns="http://www.w3.org/2000/svg" xmlns:xlink="http://www.w3.org/1999/xlink" x="0px" y="0px"
	 viewBox="0 0 400 400" style="enable-background:new 0 0 400 400;" xml:space="preserve">
<style type="text/css">
	.st0{fill:#DC4E41;}
	.st1{fill:#FFFFFF;}
</style>
<path class="st0" d="M353.9,372.9c10.5,0,19.1-8.5,19.1-19.1V46.1c0-10.5-8.5-19.1-19.1-19.1H46.1c-10.5,0-19.1,8.5-19.1,19.1v307.7
	c0,10.5,8.5,19.1,19.1,19.1H353.9z"/>
<g>
	<path class="st1" d="M105.1,200.1c-1.2-31.1,26.1-59.8,57.2-60.2c15.9-1.4,31.3,4.8,43.3,14.9c-4.9,5.4-9.9,10.8-15.3,15.8
		c-10.6-6.4-23.3-11.3-35.7-7c-19.9,5.7-32,29.2-24.6,48.7c6.1,20.3,30.9,31.5,50.3,23c10.1-3.6,16.7-12.9,19.6-22.8
		c-11.5-0.2-23-0.1-34.6-0.4c0-6.9-0.1-13.7,0-20.5c19.2,0,38.4-0.1,57.7,0.1c1.2,16.8-1.3,34.7-12.2,48.2
		c-14.9,19.2-42.6,24.9-65,17.3C121.9,249.2,104.6,225.2,105.1,200.1z"/>
	<path class="st1" d="M260.5,174.2c5.7,0,11.4,0,17.1,0c0,5.7,0.1,11.5,0.1,17.2c5.7,0.1,11.5,0.1,17.2,0.1c0,5.7,0,11.4,0,17.2
		c-5.7,0-11.5,0.1-17.2,0.1c-0.1,5.8-0.1,11.5-0.1,17.2c-5.7,0-11.5,0-17.2,0c-0.1-5.8-0.1-11.5-0.1-17.2
		c-5.7-0.1-11.5-0.1-17.2-0.1c0-5.7,0-11.4,0-17.2c5.7,0,11.5-0.1,17.2-0.1C260.3,185.7,260.4,179.9,260.5,174.2z"/>
</g>
</svg>
