<?xml version="1.0" encoding="utf-8"?>
<!-- Generator: Adobe Illustrator 19.2.1, SVG Export Plug-In . SVG Version: 6.00 Build 0)  -->
<svg version="1.1" id="Layer_1" xmlns="http://www.w3.org/2000/svg" xmlns:xlink="http://www.w3.org/1999/xlink" x="0px" y="0px"
	 viewBox="0 0 400 400" style="enable-background:new 0 0 400 400;" xml:space="preserve">
<style type="text/css">
	.st0{fill:#C1272D;}
	.st1{fill:url(#SVGID_1_);}
</style>
<path class="st0" d="M353.9,372.9c10.5,0,19.1-8.5,19.1-19.1V46.1c0-10.5-8.5-19.1-19.1-19.1H46.1c-10.5,0-19.1,8.5-19.1,19.1v307.7
	c0,10.5,8.5,19.1,19.1,19.1H353.9z"/>
<linearGradient id="SVGID_1_" gradientUnits="userSpaceOnUse" x1="201.8413" y1="99.3674" x2="196.2184" y2="314.914">
	<stop  offset="1.212120e-02" style="stop-color:#FDFDFD"/>
	<stop  offset="1" style="stop-color:#EAE9EC"/>
</linearGradient>
<path class="st1" d="M204.6,102.5c-53.2,0-80.1,38.2-80.1,70c0,19.3,7.3,36.4,22.9,42.8c2.6,1,4.9,0,5.6-2.8c0.5-2,1.7-6.9,2.3-9
	c0.8-2.8,0.5-3.8-1.6-6.2c-4.5-5.3-7.4-12.2-7.4-22c0-28.3,21.2-53.7,55.2-53.7c30.1,0,46.6,18.4,46.6,42.9
	c0,32.3-14.3,59.6-35.5,59.6c-11.7,0-20.5-9.7-17.7-21.6c3.4-14.2,9.9-29.5,9.9-39.8c0-9.2-4.9-16.8-15.1-16.8
	c-12,0-21.6,12.4-21.6,29c0,10.6,3.6,17.7,3.6,17.7s-12.3,52-14.4,61.1c-4.3,18.1-0.6,40.3-0.3,42.6c0.2,1.3,1.9,1.6,2.7,0.6
	c1.1-1.4,15.4-19.1,20.2-36.7c1.4-5,7.9-30.8,7.9-30.8c3.9,7.4,15.3,14,27.4,14c36,0,60.5-32.8,60.5-76.8
	C275.5,133.4,247.4,102.5,204.6,102.5z"/>
</svg>
