<?xml version="1.0" encoding="utf-8"?>
<!-- Generator: Adobe Illustrator 22.1.0, SVG Export Plug-In . SVG Version: 6.00 Build 0)  -->
<svg version="1.1" xmlns="http://www.w3.org/2000/svg" xmlns:xlink="http://www.w3.org/1999/xlink" x="0px" y="0px"
	 viewBox="0 0 324.9 325.4" style="enable-background:new 0 0 324.9 325.4;" xml:space="preserve">
<style type="text/css">
	.st0{fill-rule:evenodd;clip-rule:evenodd;fill:#FFFFFF;}
</style>
<g id="background_1_">
</g>
<g id="WhatsApp_Logo">
	<g id="WA_Logo">
		<g>
			<path class="st0" d="M275.4,53.9C245.6,24.2,206.1,7.8,164,7.8C77.3,7.8,6.6,78.4,6.6,165.2c0,27.7,7.2,54.8,21,78.7L5.3,325.4
				l83.4-21.9c23,12.5,48.9,19.2,75.2,19.2h0.1c0,0,0,0,0,0c86.8,0,157.4-70.6,157.4-157.4C321.4,123.2,305.1,83.7,275.4,53.9z
				 M164,296.1L164,296.1c-23.5,0-46.6-6.3-66.6-18.2l-4.8-2.8l-49.5,13l13.2-48.3l-3.1-5c-13.1-20.8-20-44.9-20-69.6
				C33.2,93,91.9,34.3,164.1,34.3c34.9,0,67.8,13.6,92.5,38.4c24.7,24.7,38.3,57.6,38.3,92.6C294.8,237.4,236.1,296.1,164,296.1z
				 M235.8,198.1c-3.9-2-23.3-11.5-26.9-12.8c-3.6-1.3-6.2-2-8.8,2c-2.6,3.9-10.2,12.8-12.5,15.4c-2.3,2.6-4.6,3-8.5,1
				c-3.9-2-16.6-6.1-31.6-19.5c-11.7-10.4-19.6-23.3-21.9-27.2c-2.3-3.9-0.2-6.1,1.7-8c1.8-1.8,3.9-4.6,5.9-6.9
				c2-2.3,2.6-3.9,3.9-6.6c1.3-2.6,0.7-4.9-0.3-6.9c-1-2-8.8-21.3-12.1-29.2c-3.2-7.7-6.4-6.6-8.8-6.8c-2.3-0.1-4.9-0.1-7.5-0.1
				c-2.6,0-6.9,1-10.5,4.9c-3.6,3.9-13.8,13.5-13.8,32.8c0,19.4,14.1,38.1,16.1,40.7c2,2.6,27.7,42.4,67.2,59.4
				c9.4,4.1,16.7,6.5,22.4,8.3c9.4,3,18,2.6,24.8,1.6c7.6-1.1,23.3-9.5,26.5-18.7c3.3-9.2,3.3-17.1,2.3-18.7
				C242.3,201.1,239.7,200.1,235.8,198.1z"/>
		</g>
	</g>
</g>
</svg>
